<svg width="32" height="32" viewBox="0 0 32 32" fill="none" xmlns="http://www.w3.org/2000/svg">
<rect width="32" height="32" rx="16" fill="white"/>
<path d="M21.607 14.4948L16.6353 6.57775C16.5631 6.47651 16.4678 6.39398 16.3573 6.33703C16.2468 6.28008 16.1243 6.25037 16 6.25037C15.8757 6.25037 15.7532 6.28008 15.6427 6.33703C15.5322 6.39398 15.4369 6.47651 15.3647 6.57775L10.3705 14.5323C9.67666 15.6515 9.29017 16.9338 9.25 18.25C9.25 20.0402 9.96116 21.7571 11.227 23.023C12.4929 24.2888 14.2098 25 16 25C17.7902 25 19.5071 24.2888 20.773 23.023C22.0388 21.7571 22.75 20.0402 22.75 18.25C22.7069 16.9194 22.3125 15.6238 21.607 14.4948ZM16 23.5C14.6082 23.4982 13.2738 22.9445 12.2897 21.9603C11.3055 20.9762 10.7518 19.6418 10.75 18.25C10.7899 17.2012 11.1049 16.1813 11.6635 15.2928L12.3647 14.1753L19.9202 21.7308C19.4295 22.2867 18.8263 22.732 18.1504 23.0372C17.4745 23.3423 16.7415 23.4996 16 23.5Z" fill="#6CABCE"/>
</svg>
