<svg width="40" height="40" viewBox="0 0 40 40" fill="none" xmlns="http://www.w3.org/2000/svg">
<rect x="0.4" y="0.4" width="39.2" height="39.2" rx="19.6" fill="white"/>
<path d="M28.6287 23.9989C28.5509 23.9052 28.4745 23.8114 28.3995 23.7209C27.3683 22.4736 26.7444 21.7208 26.7444 18.1897C26.7444 16.3616 26.307 14.8616 25.445 13.7366C24.8094 12.9055 23.9502 12.275 22.8177 11.8091C22.8031 11.801 22.7901 11.7903 22.7792 11.7777C22.3719 10.4136 21.2572 9.5 20 9.5C18.7428 9.5 17.6286 10.4136 17.2213 11.7762C17.2104 11.7884 17.1975 11.7987 17.1833 11.8067C14.5405 12.8947 13.2561 14.982 13.2561 18.1883C13.2561 21.7208 12.6331 22.4736 11.6009 23.7195C11.5259 23.81 11.4495 23.9019 11.3717 23.9975C11.1707 24.2399 11.0434 24.5348 11.0047 24.8473C10.9661 25.1598 11.0178 25.4769 11.1538 25.7609C11.443 26.3703 12.0594 26.7486 12.763 26.7486H27.2422C27.9425 26.7486 28.5547 26.3708 28.8448 25.7642C28.9814 25.4801 29.0336 25.1628 28.9953 24.8499C28.957 24.537 28.8298 24.2417 28.6287 23.9989ZM20 30.5C20.6774 30.4995 21.3419 30.3156 21.9233 29.9679C22.5046 29.6202 22.981 29.1217 23.3019 28.5252C23.317 28.4966 23.3245 28.4646 23.3236 28.4322C23.3226 28.3999 23.3134 28.3684 23.2967 28.3407C23.28 28.313 23.2564 28.2901 23.2282 28.2742C23.2001 28.2583 23.1683 28.25 23.1359 28.25H16.865C16.8326 28.2499 16.8008 28.2582 16.7725 28.274C16.7443 28.2899 16.7207 28.3128 16.7039 28.3405C16.6871 28.3682 16.6779 28.3997 16.6769 28.4321C16.676 28.4645 16.6835 28.4965 16.6986 28.5252C17.0195 29.1216 17.4958 29.6201 18.077 29.9678C18.6582 30.3155 19.3227 30.4994 20 30.5Z" fill="#404040"/>
<rect x="0.4" y="0.4" width="39.2" height="39.2" rx="19.6" stroke="#D8E4E8" stroke-width="0.8"/>
</svg>
