<svg width="24" height="24" viewBox="0 0 24 24" fill="none" xmlns="http://www.w3.org/2000/svg">
<g clip-path="url(#clip0_206_1087)">
<path d="M12 10C14.2091 10 16 8.20914 16 6C16 3.79086 14.2091 2 12 2C9.79086 2 8 3.79086 8 6C8 8.20914 9.79086 10 12 10Z" fill="white" stroke="#4C7380" stroke-width="2" stroke-linecap="round" stroke-linejoin="round"/>
<path d="M21 22.5C21 17.5294 16.9706 13 12 13C7.02945 13 3 17.5294 3 22.5" fill="white"/>
<path d="M21 22.5C21 17.5294 16.9706 13 12 13C7.02945 13 3 17.5294 3 22.5C6 23.5 21 22.8333 21 22.5Z" stroke="#4C7380" stroke-width="2" stroke-linecap="round" stroke-linejoin="round"/>
</g>
<defs>
<clipPath id="clip0_206_1087">
<rect width="24" height="24" fill="white"/>
</clipPath>
</defs>
</svg>
