<svg width="24" height="24" viewBox="0 0 24 24" fill="none" xmlns="http://www.w3.org/2000/svg">
<g clip-path="url(#clip0_206_1075)">
<path d="M18.7132 12H14.0002C12.8957 12 12.0002 11.1045 12.0002 9.99997V5.27399C12.003 4.34164 11.5721 3.46095 10.8342 2.891C10.135 2.33731 9.21823 2.13997 8.3532 2.357C2.47367 3.8165 -1.1095 9.76602 0.350046 15.6456C1.37834 19.788 4.71622 22.9579 8.90623 23.771C14.6301 24.8666 20.2152 21.3079 21.6402 15.657C21.8581 14.7908 21.6611 13.8726 21.1072 13.172C20.5307 12.4355 19.6486 12.0035 18.7132 12Z" fill="#4C7380"/>
<path d="M23.6508 7.44609C23.4225 6.59756 23.0826 5.78311 22.6398 5.02411C21.3081 2.73952 19.1327 1.06903 16.5818 0.372095C16.4138 0.326766 16.0378 0.300095 16.0378 0.300095C15.9034 0.300141 15.3248 0.300095 14.8668 0.67111C14.1936 1.20084 14.0878 1.80309 14.0778 1.85011C14.0429 1.99758 14.0247 2.14856 14.0238 2.30011V7.00013C14.0238 8.65697 15.367 10.0001 17.0238 10.0001H21.7428C22.3689 10.0019 22.9581 9.70467 23.3288 9.20011C23.603 8.8305 23.744 8.379 23.7288 7.91911C23.7209 7.75898 23.6947 7.60027 23.6508 7.44609Z" fill="#4C7380"/>
</g>
<defs>
<clipPath id="clip0_206_1075">
<rect width="24" height="24" fill="white"/>
</clipPath>
</defs>
</svg>
