<svg width="32" height="32" viewBox="0 0 32 32" fill="none" xmlns="http://www.w3.org/2000/svg">
<rect width="32" height="32" rx="16" fill="white"/>
<path d="M16 25.3C21.3019 25.3 25.6 21.7335 25.6 19.3C25.6 16.8666 21.3019 13.3 16 13.3C10.6981 13.3 6.39999 16.8692 6.39999 19.3C6.39999 21.7309 10.6981 25.3 16 25.3Z" stroke="#E7DDDA" stroke-width="2" stroke-linejoin="round"/>
<path d="M15.8 22.5C16.5956 22.5 17.3587 22.1839 17.9213 21.6213C18.4839 21.0587 18.8 20.2956 18.8 19.5C18.8 18.7044 18.4839 17.9413 17.9213 17.3787C17.3587 16.8161 16.5956 16.5 15.8 16.5C15.0043 16.5 14.2413 16.8161 13.6787 17.3787C13.1161 17.9413 12.8 18.7044 12.8 19.5C12.8 20.2956 13.1161 21.0587 13.6787 21.6213C14.2413 22.1839 15.0043 22.5 15.8 22.5Z" stroke="#E7DDDA" stroke-width="2" stroke-linejoin="round"/>
<path d="M10.632 11.2679L12.0241 13.7015M22.632 11.5664L21.2394 14M16.3983 8.40002V12.4336" stroke="#E7DDDA" stroke-width="3" stroke-linecap="round"/>
</svg>
