<svg width="32" height="32" viewBox="0 0 32 32" fill="none" xmlns="http://www.w3.org/2000/svg">
<rect width="32" height="32" rx="16" fill="white"/>
<path d="M7.5 13C7.69778 13 7.89112 12.9414 8.05557 12.8315C8.22002 12.7216 8.34819 12.5654 8.42388 12.3827C8.49957 12.2 8.51937 11.9989 8.48079 11.8049C8.4422 11.6109 8.34696 11.4327 8.20711 11.2929C8.06725 11.153 7.88907 11.0578 7.69509 11.0192C7.50111 10.9806 7.30004 11.0004 7.11732 11.0761C6.93459 11.1518 6.77841 11.28 6.66853 11.4444C6.55865 11.6089 6.5 11.8022 6.5 12C6.5 12.2652 6.60536 12.5196 6.79289 12.7071C6.98043 12.8946 7.23478 13 7.5 13ZM11.5 13H18.5C19.2956 13 20.0587 12.6839 20.6213 12.1213C21.1839 11.5587 21.5 10.7956 21.5 10C21.5 9.20435 21.1839 8.44129 20.6213 7.87868C20.0587 7.31607 19.2956 7 18.5 7C17.9739 7.00218 17.4573 7.13994 17 7.4C16.8854 7.46533 16.7849 7.55268 16.7042 7.65703C16.6235 7.76138 16.5643 7.88066 16.5299 8.008C16.4955 8.13534 16.4866 8.26822 16.5038 8.399C16.521 8.52978 16.5639 8.65587 16.63 8.77C16.6962 8.88375 16.7841 8.98333 16.8889 9.06302C16.9936 9.14271 17.113 9.20094 17.2403 9.23439C17.3675 9.26783 17.5002 9.27583 17.6305 9.25791C17.7609 9.24 17.8865 9.19653 18 9.13C18.1538 9.04722 18.3253 9.00264 18.5 9C18.7652 9 19.0196 9.10536 19.2071 9.29289C19.3946 9.48043 19.5 9.73478 19.5 10C19.5 10.2652 19.3946 10.5196 19.2071 10.7071C19.0196 10.8946 18.7652 11 18.5 11H11.5C11.2348 11 10.9804 11.1054 10.7929 11.2929C10.6054 11.4804 10.5 11.7348 10.5 12C10.5 12.2652 10.6054 12.5196 10.7929 12.7071C10.9804 12.8946 11.2348 13 11.5 13ZM7.5 17H14.5C14.7652 17 15.0196 16.8946 15.2071 16.7071C15.3946 16.5196 15.5 16.2652 15.5 16C15.5 15.7348 15.3946 15.4804 15.2071 15.2929C15.0196 15.1054 14.7652 15 14.5 15H7.5C7.23478 15 6.98043 15.1054 6.79289 15.2929C6.60536 15.4804 6.5 15.7348 6.5 16C6.5 16.2652 6.60536 16.5196 6.79289 16.7071C6.98043 16.8946 7.23478 17 7.5 17ZM24.5 13C24.6978 13 24.8911 12.9414 25.0556 12.8315C25.22 12.7216 25.3482 12.5654 25.4239 12.3827C25.4996 12.2 25.5194 11.9989 25.4808 11.8049C25.4422 11.6109 25.347 11.4327 25.2071 11.2929C25.0673 11.153 24.8891 11.0578 24.6951 11.0192C24.5011 10.9806 24.3 11.0004 24.1173 11.0761C23.9346 11.1518 23.7784 11.28 23.6685 11.4444C23.5586 11.6089 23.5 11.8022 23.5 12C23.5 12.2652 23.6054 12.5196 23.7929 12.7071C23.9804 12.8946 24.2348 13 24.5 13ZM22.5 15H18.5C18.2348 15 17.9804 15.1054 17.7929 15.2929C17.6054 15.4804 17.5 15.7348 17.5 16C17.5 16.2652 17.6054 16.5196 17.7929 16.7071C17.9804 16.8946 18.2348 17 18.5 17H22.5C22.7652 17 23.0196 17.1054 23.2071 17.2929C23.3946 17.4804 23.5 17.7348 23.5 18C23.5 18.2652 23.3946 18.5196 23.2071 18.7071C23.0196 18.8946 22.7652 19 22.5 19C22.2348 19 21.9804 19.1054 21.7929 19.2929C21.6054 19.4804 21.5 19.7348 21.5 20C21.5 20.2652 21.6054 20.5196 21.7929 20.7071C21.9804 20.8946 22.2348 21 22.5 21C23.2956 21 24.0587 20.6839 24.6213 20.1213C25.1839 19.5587 25.5 18.7956 25.5 18C25.5 17.2044 25.1839 16.4413 24.6213 15.8787C24.0587 15.3161 23.2956 15 22.5 15ZM16.5 19H12.5C12.2348 19 11.9804 19.1054 11.7929 19.2929C11.6054 19.4804 11.5 19.7348 11.5 20C11.5 20.2652 11.6054 20.5196 11.7929 20.7071C11.9804 20.8946 12.2348 21 12.5 21H16.5C16.7652 21 17.0196 21.1054 17.2071 21.2929C17.3946 21.4804 17.5 21.7348 17.5 22C17.5 22.2652 17.3946 22.5196 17.2071 22.7071C17.0196 22.8946 16.7652 23 16.5 23C16.3253 22.9974 16.1538 22.9528 16 22.87C15.8862 22.7976 15.7589 22.7491 15.6258 22.7272C15.4927 22.7053 15.3566 22.7105 15.2256 22.7426C15.0946 22.7747 14.9715 22.833 14.8636 22.9139C14.7557 22.9948 14.6652 23.0967 14.5978 23.2135C14.5303 23.3302 14.4871 23.4594 14.4708 23.5933C14.4546 23.7272 14.4655 23.863 14.5031 23.9925C14.5407 24.1221 14.6041 24.2427 14.6895 24.347C14.7749 24.4514 14.8805 24.5375 15 24.6C15.4573 24.8601 15.9739 24.9978 16.5 25C17.2956 25 18.0587 24.6839 18.6213 24.1213C19.1839 23.5587 19.5 22.7956 19.5 22C19.5 21.2044 19.1839 20.4413 18.6213 19.8787C18.0587 19.3161 17.2956 19 16.5 19ZM8.5 19H7.5C7.23478 19 6.98043 19.1054 6.79289 19.2929C6.60536 19.4804 6.5 19.7348 6.5 20C6.5 20.2652 6.60536 20.5196 6.79289 20.7071C6.98043 20.8946 7.23478 21 7.5 21H8.5C8.76522 21 9.01957 20.8946 9.20711 20.7071C9.39464 20.5196 9.5 20.2652 9.5 20C9.5 19.7348 9.39464 19.4804 9.20711 19.2929C9.01957 19.1054 8.76522 19 8.5 19Z" fill="#6CABCE"/>
</svg>
